<?xml version="1.0" encoding="UTF-8" standalone="no"?>
<!DOCTYPE svg PUBLIC "-//W3C//DTD SVG 1.1//EN"
 "http://www.w3.org/Graphics/SVG/1.1/DTD/svg11.dtd">
<!-- Generated by graphviz version 2.40.1 (20161225.0304)
 -->
<!-- Title: dependencies Pages: 1 -->
<svg width="504pt" height="284pt"
 viewBox="0.00 0.00 504.00 284.00" xmlns="http://www.w3.org/2000/svg" xmlns:xlink="http://www.w3.org/1999/xlink">
<g id="graph0" class="graph" transform="scale(1 1) rotate(0) translate(4 280)">
<title>dependencies</title>
<polygon fill="#ffffff" stroke="transparent" points="-4,4 -4,-280 500,-280 500,4 -4,4"/>
<text text-anchor="start" x="227.0091" y="-42.4" font-family="sans-serif" font-weight="bold" font-size="14.00" fill="#000000">Legend</text>
<polygon fill="#ffffb3" stroke="transparent" points="14,-10 14,-30 34,-30 34,-10 14,-10"/>
<text text-anchor="start" x="37.629" y="-15.4" font-family="sans-serif" font-size="14.00" fill="#000000"> &#160;Declarations</text>
<polygon fill="#8dd3c7" stroke="transparent" points="127,-10 127,-30 147,-30 147,-10 127,-10"/>
<text text-anchor="start" x="150.7251" y="-15.4" font-family="sans-serif" font-size="14.00" fill="#000000"> &#160;Module</text>
<polygon fill="#80b1d3" stroke="transparent" points="213,-10 213,-30 233,-30 233,-10 213,-10"/>
<text text-anchor="start" x="236.7812" y="-15.4" font-family="sans-serif" font-size="14.00" fill="#000000"> &#160;Bootstrap</text>
<polygon fill="#fdb462" stroke="transparent" points="310,-10 310,-30 330,-30 330,-10 310,-10"/>
<text text-anchor="start" x="333.6732" y="-15.4" font-family="sans-serif" font-size="14.00" fill="#000000"> &#160;Providers</text>
<polygon fill="#fb8072" stroke="transparent" points="406,-10 406,-30 426,-30 426,-10 406,-10"/>
<text text-anchor="start" x="429.7258" y="-15.4" font-family="sans-serif" font-size="14.00" fill="#000000"> &#160;Exports</text>
<g id="clust1" class="cluster">
<title>cluster_IssModule</title>
<polygon fill="none" stroke="#000000" stroke-dasharray="1,5" points="113,-70 113,-268 383,-268 383,-70 113,-70"/>
</g>
<g id="clust3" class="cluster">
<title>cluster_IssModule_imports</title>
<polygon fill="none" stroke="#000000" points="247,-78 247,-130 375,-130 375,-78 247,-78"/>
</g>
<g id="clust4" class="cluster">
<title>cluster_IssModule_exports</title>
<polygon fill="none" stroke="#000000" points="198,-208 198,-260 292,-260 292,-208 198,-208"/>
</g>
<g id="clust6" class="cluster">
<title>cluster_IssModule_providers</title>
<polygon fill="none" stroke="#000000" points="121,-78 121,-130 239,-130 239,-78 121,-78"/>
</g>
<!-- CommonModule -->
<g id="node1" class="node">
<title>CommonModule</title>
<polygon fill="#8dd3c7" stroke="#000000" points="366.6681,-122 363.6681,-126 342.6681,-126 339.6681,-122 255.3319,-122 255.3319,-86 366.6681,-86 366.6681,-122"/>
<text text-anchor="middle" x="311" y="-99.8" font-family="Times,serif" font-size="14.00" fill="#000000">CommonModule</text>
</g>
<!-- IssModule -->
<g id="node2" class="node">
<title>IssModule</title>
<polygon fill="#8dd3c7" stroke="#000000" points="282.5997,-187 279.5997,-191 258.5997,-191 255.5997,-187 207.4003,-187 207.4003,-151 282.5997,-151 282.5997,-187"/>
<text text-anchor="middle" x="245" y="-164.8" font-family="Times,serif" font-size="14.00" fill="#000000">IssModule</text>
</g>
<!-- CommonModule&#45;&gt;IssModule -->
<g id="edge1" class="edge">
<title>CommonModule&#45;&gt;IssModule</title>
<path fill="none" stroke="#000000" d="M268.858,-122.1061C268.858,-122.1061 268.858,-140.991 268.858,-140.991"/>
<polygon fill="#000000" stroke="#000000" points="265.3581,-140.9909 268.858,-150.991 272.3581,-140.991 265.3581,-140.9909"/>
</g>
<!-- IssService  -->
<g id="node3" class="node">
<title>IssService </title>
<polygon fill="#fb8072" stroke="#000000" points="283.5274,-252 206.4726,-252 206.4726,-216 283.5274,-216 283.5274,-252"/>
<text text-anchor="middle" x="245" y="-229.8" font-family="Times,serif" font-size="14.00" fill="#000000">IssService </text>
</g>
<!-- IssModule&#45;&gt;IssService  -->
<g id="edge2" class="edge">
<title>IssModule&#45;&gt;IssService </title>
<path fill="none" stroke="#000000" stroke-dasharray="5,2" d="M245,-187.1061C245,-187.1061 245,-205.991 245,-205.991"/>
<polygon fill="#000000" stroke="#000000" points="241.5001,-205.9909 245,-215.991 248.5001,-205.991 241.5001,-205.9909"/>
</g>
<!-- IssService -->
<g id="node4" class="node">
<title>IssService</title>
<ellipse fill="#fdb462" stroke="#000000" cx="180" cy="-104" rx="50.9367" ry="18"/>
<text text-anchor="middle" x="180" y="-99.8" font-family="Times,serif" font-size="14.00" fill="#000000">IssService</text>
</g>
<!-- IssService&#45;&gt;IssModule -->
<g id="edge3" class="edge">
<title>IssService&#45;&gt;IssModule</title>
<path fill="none" stroke="#000000" d="M219.084,-115.6207C219.084,-115.6207 219.084,-140.8534 219.084,-140.8534"/>
<polygon fill="#000000" stroke="#000000" points="215.5841,-140.8533 219.084,-150.8534 222.5841,-140.8534 215.5841,-140.8533"/>
</g>
</g>
</svg>
