<?xml version="1.0" encoding="UTF-8" standalone="no"?>
<!DOCTYPE svg PUBLIC "-//W3C//DTD SVG 1.1//EN"
 "http://www.w3.org/Graphics/SVG/1.1/DTD/svg11.dtd">
<!-- Generated by graphviz version 2.40.1 (20161225.0304)
 -->
<!-- Title: dependencies Pages: 1 -->
<svg width="504pt" height="284pt"
 viewBox="0.00 0.00 504.00 284.00" xmlns="http://www.w3.org/2000/svg" xmlns:xlink="http://www.w3.org/1999/xlink">
<g id="graph0" class="graph" transform="scale(1 1) rotate(0) translate(4 280)">
<title>dependencies</title>
<polygon fill="#ffffff" stroke="transparent" points="-4,4 -4,-280 500,-280 500,4 -4,4"/>
<text text-anchor="start" x="227.0091" y="-42.4" font-family="sans-serif" font-weight="bold" font-size="14.00" fill="#000000">Legend</text>
<polygon fill="#ffffb3" stroke="transparent" points="14,-10 14,-30 34,-30 34,-10 14,-10"/>
<text text-anchor="start" x="37.629" y="-15.4" font-family="sans-serif" font-size="14.00" fill="#000000"> &#160;Declarations</text>
<polygon fill="#8dd3c7" stroke="transparent" points="127,-10 127,-30 147,-30 147,-10 127,-10"/>
<text text-anchor="start" x="150.7251" y="-15.4" font-family="sans-serif" font-size="14.00" fill="#000000"> &#160;Module</text>
<polygon fill="#80b1d3" stroke="transparent" points="213,-10 213,-30 233,-30 233,-10 213,-10"/>
<text text-anchor="start" x="236.7812" y="-15.4" font-family="sans-serif" font-size="14.00" fill="#000000"> &#160;Bootstrap</text>
<polygon fill="#fdb462" stroke="transparent" points="310,-10 310,-30 330,-30 330,-10 310,-10"/>
<text text-anchor="start" x="333.6732" y="-15.4" font-family="sans-serif" font-size="14.00" fill="#000000"> &#160;Providers</text>
<polygon fill="#fb8072" stroke="transparent" points="406,-10 406,-30 426,-30 426,-10 406,-10"/>
<text text-anchor="start" x="429.7258" y="-15.4" font-family="sans-serif" font-size="14.00" fill="#000000"> &#160;Exports</text>
<g id="clust1" class="cluster">
<title>cluster_CommonModule</title>
<polygon fill="none" stroke="#000000" stroke-dasharray="1,5" points="29,-70 29,-268 467,-268 467,-70 29,-70"/>
</g>
<g id="clust4" class="cluster">
<title>cluster_CommonModule_exports</title>
<polygon fill="none" stroke="#000000" points="68,-208 68,-260 391,-260 391,-208 68,-208"/>
</g>
<g id="clust6" class="cluster">
<title>cluster_CommonModule_providers</title>
<polygon fill="none" stroke="#000000" points="37,-78 37,-130 459,-130 459,-78 37,-78"/>
</g>
<!-- ExpoNotifierService  -->
<g id="node1" class="node">
<title>ExpoNotifierService </title>
<polygon fill="#fb8072" stroke="#000000" points="382.8448,-252 247.1552,-252 247.1552,-216 382.8448,-216 382.8448,-252"/>
<text text-anchor="middle" x="315" y="-229.8" font-family="Times,serif" font-size="14.00" fill="#000000">ExpoNotifierService </text>
</g>
<!-- FirebaseNotifierService  -->
<g id="node2" class="node">
<title>FirebaseNotifierService </title>
<polygon fill="#fb8072" stroke="#000000" points="229.7141,-252 76.2859,-252 76.2859,-216 229.7141,-216 229.7141,-252"/>
<text text-anchor="middle" x="153" y="-229.8" font-family="Times,serif" font-size="14.00" fill="#000000">FirebaseNotifierService </text>
</g>
<!-- CommonModule -->
<g id="node3" class="node">
<title>CommonModule</title>
<polygon fill="#8dd3c7" stroke="#000000" points="239.6681,-187 236.6681,-191 215.6681,-191 212.6681,-187 128.3319,-187 128.3319,-151 239.6681,-151 239.6681,-187"/>
<text text-anchor="middle" x="184" y="-164.8" font-family="Times,serif" font-size="14.00" fill="#000000">CommonModule</text>
</g>
<!-- CommonModule&#45;&gt;ExpoNotifierService  -->
<g id="edge1" class="edge">
<title>CommonModule&#45;&gt;ExpoNotifierService </title>
<path fill="none" stroke="#000000" stroke-dasharray="5,2" d="M234.7204,-187.1061C234.7204,-206.3391 234.7204,-234 234.7204,-234 234.7204,-234 237.2641,-234 237.2641,-234"/>
<polygon fill="#000000" stroke="#000000" points="237.2641,-237.5001 247.2641,-234 237.2641,-230.5001 237.2641,-237.5001"/>
</g>
<!-- CommonModule&#45;&gt;FirebaseNotifierService  -->
<g id="edge2" class="edge">
<title>CommonModule&#45;&gt;FirebaseNotifierService </title>
<path fill="none" stroke="#000000" stroke-dasharray="5,2" d="M178.8866,-187.1061C178.8866,-187.1061 178.8866,-205.991 178.8866,-205.991"/>
<polygon fill="#000000" stroke="#000000" points="175.3867,-205.9909 178.8866,-215.991 182.3867,-205.991 175.3867,-205.9909"/>
</g>
<!-- ExpoNotifierService -->
<g id="node4" class="node">
<title>ExpoNotifierService</title>
<ellipse fill="#fdb462" stroke="#000000" cx="360" cy="-104" rx="90.8878" ry="18"/>
<text text-anchor="middle" x="360" y="-99.8" font-family="Times,serif" font-size="14.00" fill="#000000">ExpoNotifierService</text>
</g>
<!-- ExpoNotifierService&#45;&gt;CommonModule -->
<g id="edge3" class="edge">
<title>ExpoNotifierService&#45;&gt;CommonModule</title>
<path fill="none" stroke="#000000" d="M325.8642,-120.7391C325.8642,-139.9982 325.8642,-169 325.8642,-169 325.8642,-169 250.0685,-169 250.0685,-169"/>
<polygon fill="#000000" stroke="#000000" points="250.0685,-165.5001 240.0685,-169 250.0684,-172.5001 250.0685,-165.5001"/>
</g>
<!-- FirebaseNotifierService -->
<g id="node5" class="node">
<title>FirebaseNotifierService</title>
<ellipse fill="#fdb462" stroke="#000000" cx="148" cy="-104" rx="103.0405" ry="18"/>
<text text-anchor="middle" x="148" y="-99.8" font-family="Times,serif" font-size="14.00" fill="#000000">FirebaseNotifierService</text>
</g>
<!-- FirebaseNotifierService&#45;&gt;CommonModule -->
<g id="edge4" class="edge">
<title>FirebaseNotifierService&#45;&gt;CommonModule</title>
<path fill="none" stroke="#000000" d="M184,-121.078C184,-121.078 184,-140.8993 184,-140.8993"/>
<polygon fill="#000000" stroke="#000000" points="180.5001,-140.8992 184,-150.8993 187.5001,-140.8993 180.5001,-140.8992"/>
</g>
</g>
</svg>
