<?xml version="1.0" encoding="UTF-8" standalone="no"?>
<!DOCTYPE svg PUBLIC "-//W3C//DTD SVG 1.1//EN"
 "http://www.w3.org/Graphics/SVG/1.1/DTD/svg11.dtd">
<!-- Generated by graphviz version 2.40.1 (20161225.0304)
 -->
<!-- Title: dependencies Pages: 1 -->
<svg width="504pt" height="211pt"
 viewBox="0.00 0.00 504.00 211.00" xmlns="http://www.w3.org/2000/svg" xmlns:xlink="http://www.w3.org/1999/xlink">
<g id="graph0" class="graph" transform="scale(1 1) rotate(0) translate(4 207)">
<title>dependencies</title>
<polygon fill="#ffffff" stroke="transparent" points="-4,4 -4,-207 500,-207 500,4 -4,4"/>
<text text-anchor="start" x="227.0091" y="-42.4" font-family="sans-serif" font-weight="bold" font-size="14.00" fill="#000000">Legend</text>
<polygon fill="#ffffb3" stroke="transparent" points="14,-10 14,-30 34,-30 34,-10 14,-10"/>
<text text-anchor="start" x="37.629" y="-15.4" font-family="sans-serif" font-size="14.00" fill="#000000"> &#160;Declarations</text>
<polygon fill="#8dd3c7" stroke="transparent" points="127,-10 127,-30 147,-30 147,-10 127,-10"/>
<text text-anchor="start" x="150.7251" y="-15.4" font-family="sans-serif" font-size="14.00" fill="#000000"> &#160;Module</text>
<polygon fill="#80b1d3" stroke="transparent" points="213,-10 213,-30 233,-30 233,-10 213,-10"/>
<text text-anchor="start" x="236.7812" y="-15.4" font-family="sans-serif" font-size="14.00" fill="#000000"> &#160;Bootstrap</text>
<polygon fill="#fdb462" stroke="transparent" points="310,-10 310,-30 330,-30 330,-10 310,-10"/>
<text text-anchor="start" x="333.6732" y="-15.4" font-family="sans-serif" font-size="14.00" fill="#000000"> &#160;Providers</text>
<polygon fill="#fb8072" stroke="transparent" points="406,-10 406,-30 426,-30 426,-10 406,-10"/>
<text text-anchor="start" x="429.7258" y="-15.4" font-family="sans-serif" font-size="14.00" fill="#000000"> &#160;Exports</text>
<g id="clust1" class="cluster">
<title>cluster_AppModule</title>
<polygon fill="none" stroke="#000000" stroke-dasharray="1,5" points="77.5,-70 77.5,-195 418.5,-195 418.5,-70 77.5,-70"/>
</g>
<g id="clust3" class="cluster">
<title>cluster_AppModule_imports</title>
<polygon fill="none" stroke="#000000" points="85.5,-78 85.5,-130 410.5,-130 410.5,-78 85.5,-78"/>
</g>
<!-- CommonModule -->
<g id="node1" class="node">
<title>CommonModule</title>
<polygon fill="#8dd3c7" stroke="#000000" points="402.1681,-122 399.1681,-126 378.1681,-126 375.1681,-122 290.8319,-122 290.8319,-86 402.1681,-86 402.1681,-122"/>
<text text-anchor="middle" x="346.5" y="-99.8" font-family="Times,serif" font-size="14.00" fill="#000000">CommonModule</text>
</g>
<!-- AppModule -->
<g id="node4" class="node">
<title>AppModule</title>
<polygon fill="#8dd3c7" stroke="#000000" points="277.1571,-187 274.1571,-191 253.1571,-191 250.1571,-187 193.8429,-187 193.8429,-151 277.1571,-151 277.1571,-187"/>
<text text-anchor="middle" x="235.5" y="-164.8" font-family="Times,serif" font-size="14.00" fill="#000000">AppModule</text>
</g>
<!-- CommonModule&#45;&gt;AppModule -->
<g id="edge1" class="edge">
<title>CommonModule&#45;&gt;AppModule</title>
<path fill="none" stroke="#000000" d="M346.5,-122.1061C346.5,-141.3391 346.5,-169 346.5,-169 346.5,-169 287.4643,-169 287.4643,-169"/>
<polygon fill="#000000" stroke="#000000" points="287.4644,-165.5001 277.4643,-169 287.4643,-172.5001 287.4644,-165.5001"/>
</g>
<!-- IssModule -->
<g id="node2" class="node">
<title>IssModule</title>
<polygon fill="#8dd3c7" stroke="#000000" points="273.0997,-122 270.0997,-126 249.0997,-126 246.0997,-122 197.9003,-122 197.9003,-86 273.0997,-86 273.0997,-122"/>
<text text-anchor="middle" x="235.5" y="-99.8" font-family="Times,serif" font-size="14.00" fill="#000000">IssModule</text>
</g>
<!-- IssModule&#45;&gt;AppModule -->
<g id="edge2" class="edge">
<title>IssModule&#45;&gt;AppModule</title>
<path fill="none" stroke="#000000" d="M235.5,-122.1061C235.5,-122.1061 235.5,-140.991 235.5,-140.991"/>
<polygon fill="#000000" stroke="#000000" points="232.0001,-140.9909 235.5,-150.991 239.0001,-140.991 232.0001,-140.9909"/>
</g>
<!-- UserModule -->
<g id="node3" class="node">
<title>UserModule</title>
<polygon fill="#8dd3c7" stroke="#000000" points="179.4762,-122 176.4762,-126 155.4762,-126 152.4762,-122 93.5238,-122 93.5238,-86 179.4762,-86 179.4762,-122"/>
<text text-anchor="middle" x="136.5" y="-99.8" font-family="Times,serif" font-size="14.00" fill="#000000">UserModule</text>
</g>
<!-- UserModule&#45;&gt;AppModule -->
<g id="edge3" class="edge">
<title>UserModule&#45;&gt;AppModule</title>
<path fill="none" stroke="#000000" d="M136.5,-122.1061C136.5,-141.3391 136.5,-169 136.5,-169 136.5,-169 183.802,-169 183.802,-169"/>
<polygon fill="#000000" stroke="#000000" points="183.8021,-172.5001 193.802,-169 183.802,-165.5001 183.8021,-172.5001"/>
</g>
</g>
</svg>
