<?xml version="1.0" encoding="UTF-8" standalone="no"?>
<!DOCTYPE svg PUBLIC "-//W3C//DTD SVG 1.1//EN"
 "http://www.w3.org/Graphics/SVG/1.1/DTD/svg11.dtd">
<!-- Generated by graphviz version 2.40.1 (20161225.0304)
 -->
<!-- Title: dependencies Pages: 1 -->
<svg width="504pt" height="211pt"
 viewBox="0.00 0.00 504.00 211.00" xmlns="http://www.w3.org/2000/svg" xmlns:xlink="http://www.w3.org/1999/xlink">
<g id="graph0" class="graph" transform="scale(1 1) rotate(0) translate(4 207)">
<title>dependencies</title>
<polygon fill="#ffffff" stroke="transparent" points="-4,4 -4,-207 500,-207 500,4 -4,4"/>
<text text-anchor="start" x="227.0091" y="-42.4" font-family="sans-serif" font-weight="bold" font-size="14.00" fill="#000000">Legend</text>
<polygon fill="#ffffb3" stroke="transparent" points="14,-10 14,-30 34,-30 34,-10 14,-10"/>
<text text-anchor="start" x="37.629" y="-15.4" font-family="sans-serif" font-size="14.00" fill="#000000"> &#160;Declarations</text>
<polygon fill="#8dd3c7" stroke="transparent" points="127,-10 127,-30 147,-30 147,-10 127,-10"/>
<text text-anchor="start" x="150.7251" y="-15.4" font-family="sans-serif" font-size="14.00" fill="#000000"> &#160;Module</text>
<polygon fill="#80b1d3" stroke="transparent" points="213,-10 213,-30 233,-30 233,-10 213,-10"/>
<text text-anchor="start" x="236.7812" y="-15.4" font-family="sans-serif" font-size="14.00" fill="#000000"> &#160;Bootstrap</text>
<polygon fill="#fdb462" stroke="transparent" points="310,-10 310,-30 330,-30 330,-10 310,-10"/>
<text text-anchor="start" x="333.6732" y="-15.4" font-family="sans-serif" font-size="14.00" fill="#000000"> &#160;Providers</text>
<polygon fill="#fb8072" stroke="transparent" points="406,-10 406,-30 426,-30 426,-10 406,-10"/>
<text text-anchor="start" x="429.7258" y="-15.4" font-family="sans-serif" font-size="14.00" fill="#000000"> &#160;Exports</text>
<g id="clust1" class="cluster">
<title>cluster_AppModule</title>
<polygon fill="none" stroke="#000000" stroke-dasharray="1,5" points="129.5,-70 129.5,-195 366.5,-195 366.5,-70 129.5,-70"/>
</g>
<g id="clust3" class="cluster">
<title>cluster_AppModule_imports</title>
<polygon fill="none" stroke="#000000" points="137.5,-78 137.5,-130 358.5,-130 358.5,-78 137.5,-78"/>
</g>
<!-- CommonModule -->
<g id="node1" class="node">
<title>CommonModule</title>
<polygon fill="#8dd3c7" stroke="#000000" points="350.1681,-122 347.1681,-126 326.1681,-126 323.1681,-122 238.8319,-122 238.8319,-86 350.1681,-86 350.1681,-122"/>
<text text-anchor="middle" x="294.5" y="-99.8" font-family="Times,serif" font-size="14.00" fill="#000000">CommonModule</text>
</g>
<!-- AppModule -->
<g id="node3" class="node">
<title>AppModule</title>
<polygon fill="#8dd3c7" stroke="#000000" points="280.1571,-187 277.1571,-191 256.1571,-191 253.1571,-187 196.8429,-187 196.8429,-151 280.1571,-151 280.1571,-187"/>
<text text-anchor="middle" x="238.5" y="-164.8" font-family="Times,serif" font-size="14.00" fill="#000000">AppModule</text>
</g>
<!-- CommonModule&#45;&gt;AppModule -->
<g id="edge1" class="edge">
<title>CommonModule&#45;&gt;AppModule</title>
<path fill="none" stroke="#000000" d="M259.4972,-122.1061C259.4972,-122.1061 259.4972,-140.991 259.4972,-140.991"/>
<polygon fill="#000000" stroke="#000000" points="255.9973,-140.9909 259.4972,-150.991 262.9973,-140.991 255.9973,-140.9909"/>
</g>
<!-- IssModule -->
<g id="node2" class="node">
<title>IssModule</title>
<polygon fill="#8dd3c7" stroke="#000000" points="221.0997,-122 218.0997,-126 197.0997,-126 194.0997,-122 145.9003,-122 145.9003,-86 221.0997,-86 221.0997,-122"/>
<text text-anchor="middle" x="183.5" y="-99.8" font-family="Times,serif" font-size="14.00" fill="#000000">IssModule</text>
</g>
<!-- IssModule&#45;&gt;AppModule -->
<g id="edge2" class="edge">
<title>IssModule&#45;&gt;AppModule</title>
<path fill="none" stroke="#000000" d="M208.8608,-122.1061C208.8608,-122.1061 208.8608,-140.991 208.8608,-140.991"/>
<polygon fill="#000000" stroke="#000000" points="205.3609,-140.9909 208.8608,-150.991 212.3609,-140.991 205.3609,-140.9909"/>
</g>
</g>
</svg>
