<?xml version="1.0" encoding="UTF-8" standalone="no"?>
<!DOCTYPE svg PUBLIC "-//W3C//DTD SVG 1.1//EN"
 "http://www.w3.org/Graphics/SVG/1.1/DTD/svg11.dtd">
<!-- Generated by graphviz version 2.40.1 (20161225.0304)
 -->
<!-- Title: dependencies Pages: 1 -->
<svg width="945pt" height="295pt"
 viewBox="0.00 0.00 945.00 295.00" xmlns="http://www.w3.org/2000/svg" xmlns:xlink="http://www.w3.org/1999/xlink">
<g id="graph0" class="graph" transform="scale(1 1) rotate(0) translate(4 291)">
<title>dependencies</title>
<polygon fill="#ffffff" stroke="transparent" points="-4,4 -4,-291 941,-291 941,4 -4,4"/>
<text text-anchor="start" x="447.5091" y="-42.4" font-family="sans-serif" font-weight="bold" font-size="14.00" fill="#000000">Legend</text>
<polygon fill="#ffffb3" stroke="transparent" points="234.5,-10 234.5,-30 254.5,-30 254.5,-10 234.5,-10"/>
<text text-anchor="start" x="258.129" y="-15.4" font-family="sans-serif" font-size="14.00" fill="#000000"> &#160;Declarations</text>
<polygon fill="#8dd3c7" stroke="transparent" points="347.5,-10 347.5,-30 367.5,-30 367.5,-10 347.5,-10"/>
<text text-anchor="start" x="371.2251" y="-15.4" font-family="sans-serif" font-size="14.00" fill="#000000"> &#160;Module</text>
<polygon fill="#80b1d3" stroke="transparent" points="433.5,-10 433.5,-30 453.5,-30 453.5,-10 433.5,-10"/>
<text text-anchor="start" x="457.2812" y="-15.4" font-family="sans-serif" font-size="14.00" fill="#000000"> &#160;Bootstrap</text>
<polygon fill="#fdb462" stroke="transparent" points="530.5,-10 530.5,-30 550.5,-30 550.5,-10 530.5,-10"/>
<text text-anchor="start" x="554.1732" y="-15.4" font-family="sans-serif" font-size="14.00" fill="#000000"> &#160;Providers</text>
<polygon fill="#fb8072" stroke="transparent" points="626.5,-10 626.5,-30 646.5,-30 646.5,-10 626.5,-10"/>
<text text-anchor="start" x="650.2258" y="-15.4" font-family="sans-serif" font-size="14.00" fill="#000000"> &#160;Exports</text>
<g id="clust1" class="cluster">
<title>cluster_AppModule</title>
<polygon fill="none" stroke="#000000" stroke-dasharray="1,5" points="8,-70 8,-271 152,-271 152,-70 8,-70"/>
</g>
<g id="clust3" class="cluster">
<title>cluster_AppModule_imports</title>
<polygon fill="none" stroke="#000000" points="16,-78 16,-195 144,-195 144,-78 16,-78"/>
</g>
<g id="clust7" class="cluster">
<title>cluster_CommonModule</title>
<polygon fill="none" stroke="#000000" stroke-dasharray="1,5" points="160,-135 160,-203 929,-203 929,-135 160,-135"/>
</g>
<g id="clust10" class="cluster">
<title>cluster_CommonModule_exports</title>
<polygon fill="none" stroke="#000000" points="598,-143 598,-195 921,-195 921,-143 598,-143"/>
</g>
<g id="clust12" class="cluster">
<title>cluster_CommonModule_providers</title>
<polygon fill="none" stroke="#000000" points="168,-143 168,-195 590,-195 590,-143 168,-143"/>
</g>
<g id="clust13" class="cluster">
<title>cluster_IssModule</title>
<polygon fill="none" stroke="#000000" stroke-dasharray="1,5" points="160,-211 160,-279 396,-279 396,-211 160,-211"/>
</g>
<g id="clust16" class="cluster">
<title>cluster_IssModule_exports</title>
<polygon fill="none" stroke="#000000" points="294,-219 294,-271 388,-271 388,-219 294,-219"/>
</g>
<g id="clust18" class="cluster">
<title>cluster_IssModule_providers</title>
<polygon fill="none" stroke="#000000" points="168,-219 168,-271 286,-271 286,-219 168,-219"/>
</g>
<!-- CommonModule -->
<g id="node1" class="node">
<title>CommonModule</title>
<polygon fill="#8dd3c7" stroke="#000000" points="135.6681,-122 132.6681,-126 111.6681,-126 108.6681,-122 24.3319,-122 24.3319,-86 135.6681,-86 135.6681,-122"/>
<text text-anchor="middle" x="80" y="-99.8" font-family="Times,serif" font-size="14.00" fill="#000000">CommonModule</text>
</g>
<!-- IssModule -->
<g id="node2" class="node">
<title>IssModule</title>
<polygon fill="#8dd3c7" stroke="#000000" points="135.5997,-187 132.5997,-191 111.5997,-191 108.5997,-187 60.4003,-187 60.4003,-151 135.5997,-151 135.5997,-187"/>
<text text-anchor="middle" x="98" y="-164.8" font-family="Times,serif" font-size="14.00" fill="#000000">IssModule</text>
</g>
<!-- CommonModule&#45;&gt;IssModule -->
<g id="edge7" class="edge">
<title>CommonModule&#45;&gt;IssModule</title>
<path fill="none" stroke="#000000" d="M98,-122.1061C98,-122.1061 98,-140.991 98,-140.991"/>
<polygon fill="#000000" stroke="#000000" points="94.5001,-140.9909 98,-150.991 101.5001,-140.991 94.5001,-140.9909"/>
</g>
<!-- AppModule -->
<g id="node3" class="node">
<title>AppModule</title>
<polygon fill="#8dd3c7" stroke="#000000" points="119.6571,-263 116.6571,-267 95.6571,-267 92.6571,-263 36.3429,-263 36.3429,-227 119.6571,-227 119.6571,-263"/>
<text text-anchor="middle" x="78" y="-240.8" font-family="Times,serif" font-size="14.00" fill="#000000">AppModule</text>
</g>
<!-- CommonModule&#45;&gt;AppModule -->
<g id="edge1" class="edge">
<title>CommonModule&#45;&gt;AppModule</title>
<path fill="none" stroke="#000000" d="M48.311,-122.1446C48.311,-122.1446 48.311,-216.925 48.311,-216.925"/>
<polygon fill="#000000" stroke="#000000" points="44.8111,-216.925 48.311,-226.925 51.8111,-216.925 44.8111,-216.925"/>
</g>
<!-- ExpoNotifierService  -->
<g id="node4" class="node">
<title>ExpoNotifierService </title>
<polygon fill="#fb8072" stroke="#000000" points="912.8448,-187 777.1552,-187 777.1552,-151 912.8448,-151 912.8448,-187"/>
<text text-anchor="middle" x="845" y="-164.8" font-family="Times,serif" font-size="14.00" fill="#000000">ExpoNotifierService </text>
</g>
<!-- CommonModule&#45;&gt;ExpoNotifierService  -->
<g id="edge3" class="edge">
<title>CommonModule&#45;&gt;ExpoNotifierService </title>
<path fill="none" stroke="#000000" stroke-dasharray="5,2" d="M135.9423,-94C312.2964,-94 845,-94 845,-94 845,-94 845,-140.8446 845,-140.8446"/>
<polygon fill="#000000" stroke="#000000" points="841.5001,-140.8446 845,-150.8446 848.5001,-140.8446 841.5001,-140.8446"/>
</g>
<!-- FirebaseNotifierService  -->
<g id="node5" class="node">
<title>FirebaseNotifierService </title>
<polygon fill="#fb8072" stroke="#000000" points="759.7141,-187 606.2859,-187 606.2859,-151 759.7141,-151 759.7141,-187"/>
<text text-anchor="middle" x="683" y="-164.8" font-family="Times,serif" font-size="14.00" fill="#000000">FirebaseNotifierService </text>
</g>
<!-- CommonModule&#45;&gt;FirebaseNotifierService  -->
<g id="edge4" class="edge">
<title>CommonModule&#45;&gt;FirebaseNotifierService </title>
<path fill="none" stroke="#000000" stroke-dasharray="5,2" d="M135.9173,-101C285.4041,-101 683,-101 683,-101 683,-101 683,-140.7772 683,-140.7772"/>
<polygon fill="#000000" stroke="#000000" points="679.5001,-140.7772 683,-150.7772 686.5001,-140.7773 679.5001,-140.7772"/>
</g>
<!-- IssModule&#45;&gt;AppModule -->
<g id="edge2" class="edge">
<title>IssModule&#45;&gt;AppModule</title>
<path fill="none" stroke="#000000" d="M90.1392,-187.0109C90.1392,-187.0109 90.1392,-216.855 90.1392,-216.855"/>
<polygon fill="#000000" stroke="#000000" points="86.6393,-216.8549 90.1392,-226.855 93.6393,-216.855 86.6393,-216.8549"/>
</g>
<!-- IssService  -->
<g id="node8" class="node">
<title>IssService </title>
<polygon fill="#fb8072" stroke="#000000" points="379.5274,-263 302.4726,-263 302.4726,-227 379.5274,-227 379.5274,-263"/>
<text text-anchor="middle" x="341" y="-240.8" font-family="Times,serif" font-size="14.00" fill="#000000">IssService </text>
</g>
<!-- IssModule&#45;&gt;IssService  -->
<g id="edge8" class="edge">
<title>IssModule&#45;&gt;IssService </title>
<path fill="none" stroke="#000000" stroke-dasharray="5,2" d="M125.0687,-187.1097C125.0687,-196.897 125.0687,-207 125.0687,-207 125.0687,-207 341,-207 341,-207 341,-207 341,-216.8903 341,-216.8903"/>
<polygon fill="#000000" stroke="#000000" points="337.5001,-216.8903 341,-226.8903 344.5001,-216.8904 337.5001,-216.8903"/>
</g>
<!-- ExpoNotifierService -->
<g id="node6" class="node">
<title>ExpoNotifierService</title>
<ellipse fill="#fdb462" stroke="#000000" cx="491" cy="-169" rx="90.8878" ry="18"/>
<text text-anchor="middle" x="491" y="-164.8" font-family="Times,serif" font-size="14.00" fill="#000000">ExpoNotifierService</text>
</g>
<!-- ExpoNotifierService&#45;&gt;CommonModule -->
<g id="edge5" class="edge">
<title>ExpoNotifierService&#45;&gt;CommonModule</title>
<path fill="none" stroke="#000000" d="M491,-150.698C491,-132.7301 491,-108 491,-108 491,-108 145.857,-108 145.857,-108"/>
<polygon fill="#000000" stroke="#000000" points="145.8571,-104.5001 135.857,-108 145.857,-111.5001 145.8571,-104.5001"/>
</g>
<!-- FirebaseNotifierService -->
<g id="node7" class="node">
<title>FirebaseNotifierService</title>
<ellipse fill="#fdb462" stroke="#000000" cx="279" cy="-169" rx="103.0405" ry="18"/>
<text text-anchor="middle" x="279" y="-164.8" font-family="Times,serif" font-size="14.00" fill="#000000">FirebaseNotifierService</text>
</g>
<!-- FirebaseNotifierService&#45;&gt;CommonModule -->
<g id="edge6" class="edge">
<title>FirebaseNotifierService&#45;&gt;CommonModule</title>
<path fill="none" stroke="#000000" d="M279,-150.7181C279,-135.0522 279,-115 279,-115 279,-115 145.6972,-115 145.6972,-115"/>
<polygon fill="#000000" stroke="#000000" points="145.6972,-111.5001 135.6972,-115 145.6972,-118.5001 145.6972,-111.5001"/>
</g>
<!-- IssService -->
<g id="node9" class="node">
<title>IssService</title>
<ellipse fill="#fdb462" stroke="#000000" cx="227" cy="-245" rx="50.9367" ry="18"/>
<text text-anchor="middle" x="227" y="-240.8" font-family="Times,serif" font-size="14.00" fill="#000000">IssService</text>
</g>
<!-- IssService&#45;&gt;IssModule -->
<g id="edge9" class="edge">
<title>IssService&#45;&gt;IssModule</title>
<path fill="none" stroke="#000000" d="M176.1062,-245C152.8122,-245 130.3093,-245 130.3093,-245 130.3093,-245 130.3093,-197.0109 130.3093,-197.0109"/>
<polygon fill="#000000" stroke="#000000" points="133.8094,-197.0109 130.3093,-187.0109 126.8094,-197.011 133.8094,-197.0109"/>
</g>
</g>
</svg>
