<?xml version="1.0" encoding="UTF-8" standalone="no"?>
<!DOCTYPE svg PUBLIC "-//W3C//DTD SVG 1.1//EN"
 "http://www.w3.org/Graphics/SVG/1.1/DTD/svg11.dtd">
<!-- Generated by graphviz version 2.40.1 (20161225.0304)
 -->
<!-- Title: dependencies Pages: 1 -->
<svg width="1064pt" height="371pt"
 viewBox="0.00 0.00 1064.00 371.00" xmlns="http://www.w3.org/2000/svg" xmlns:xlink="http://www.w3.org/1999/xlink">
<g id="graph0" class="graph" transform="scale(1 1) rotate(0) translate(4 367)">
<title>dependencies</title>
<polygon fill="#ffffff" stroke="transparent" points="-4,4 -4,-367 1060,-367 1060,4 -4,4"/>
<text text-anchor="start" x="507.0091" y="-42.4" font-family="sans-serif" font-weight="bold" font-size="14.00" fill="#000000">Legend</text>
<polygon fill="#ffffb3" stroke="transparent" points="294,-10 294,-30 314,-30 314,-10 294,-10"/>
<text text-anchor="start" x="317.629" y="-15.4" font-family="sans-serif" font-size="14.00" fill="#000000"> &#160;Declarations</text>
<polygon fill="#8dd3c7" stroke="transparent" points="407,-10 407,-30 427,-30 427,-10 407,-10"/>
<text text-anchor="start" x="430.7251" y="-15.4" font-family="sans-serif" font-size="14.00" fill="#000000"> &#160;Module</text>
<polygon fill="#80b1d3" stroke="transparent" points="493,-10 493,-30 513,-30 513,-10 493,-10"/>
<text text-anchor="start" x="516.7812" y="-15.4" font-family="sans-serif" font-size="14.00" fill="#000000"> &#160;Bootstrap</text>
<polygon fill="#fdb462" stroke="transparent" points="590,-10 590,-30 610,-30 610,-10 590,-10"/>
<text text-anchor="start" x="613.6732" y="-15.4" font-family="sans-serif" font-size="14.00" fill="#000000"> &#160;Providers</text>
<polygon fill="#fb8072" stroke="transparent" points="686,-10 686,-30 706,-30 706,-10 686,-10"/>
<text text-anchor="start" x="709.7258" y="-15.4" font-family="sans-serif" font-size="14.00" fill="#000000"> &#160;Exports</text>
<g id="clust1" class="cluster">
<title>cluster_AppModule</title>
<polygon fill="none" stroke="#000000" stroke-dasharray="1,5" points="23,-146 23,-347 271,-347 271,-146 23,-146"/>
</g>
<g id="clust3" class="cluster">
<title>cluster_AppModule_imports</title>
<polygon fill="none" stroke="#000000" points="31,-154 31,-271 263,-271 263,-154 31,-154"/>
</g>
<g id="clust7" class="cluster">
<title>cluster_CommonModule</title>
<polygon fill="none" stroke="#000000" stroke-dasharray="1,5" points="279,-211 279,-279 1048,-279 1048,-211 279,-211"/>
</g>
<g id="clust10" class="cluster">
<title>cluster_CommonModule_exports</title>
<polygon fill="none" stroke="#000000" points="717,-219 717,-271 1040,-271 1040,-219 717,-219"/>
</g>
<g id="clust12" class="cluster">
<title>cluster_CommonModule_providers</title>
<polygon fill="none" stroke="#000000" points="287,-219 287,-271 709,-271 709,-219 287,-219"/>
</g>
<g id="clust13" class="cluster">
<title>cluster_IssModule</title>
<polygon fill="none" stroke="#000000" stroke-dasharray="1,5" points="279,-287 279,-355 515,-355 515,-287 279,-287"/>
</g>
<g id="clust16" class="cluster">
<title>cluster_IssModule_exports</title>
<polygon fill="none" stroke="#000000" points="413,-295 413,-347 507,-347 507,-295 413,-295"/>
</g>
<g id="clust18" class="cluster">
<title>cluster_IssModule_providers</title>
<polygon fill="none" stroke="#000000" points="287,-295 287,-347 405,-347 405,-295 287,-295"/>
</g>
<g id="clust19" class="cluster">
<title>cluster_UserModule</title>
<polygon fill="none" stroke="#000000" stroke-dasharray="1,5" points="8,-70 8,-138 156,-138 156,-70 8,-70"/>
</g>
<g id="clust24" class="cluster">
<title>cluster_UserModule_providers</title>
<polygon fill="none" stroke="#000000" points="16,-78 16,-130 148,-130 148,-78 16,-78"/>
</g>
<!-- CommonModule -->
<g id="node1" class="node">
<title>CommonModule</title>
<polygon fill="#8dd3c7" stroke="#000000" points="254.6681,-198 251.6681,-202 230.6681,-202 227.6681,-198 143.3319,-198 143.3319,-162 254.6681,-162 254.6681,-198"/>
<text text-anchor="middle" x="199" y="-175.8" font-family="Times,serif" font-size="14.00" fill="#000000">CommonModule</text>
</g>
<!-- IssModule -->
<g id="node2" class="node">
<title>IssModule</title>
<polygon fill="#8dd3c7" stroke="#000000" points="254.5997,-263 251.5997,-267 230.5997,-267 227.5997,-263 179.4003,-263 179.4003,-227 254.5997,-227 254.5997,-263"/>
<text text-anchor="middle" x="217" y="-240.8" font-family="Times,serif" font-size="14.00" fill="#000000">IssModule</text>
</g>
<!-- CommonModule&#45;&gt;IssModule -->
<g id="edge8" class="edge">
<title>CommonModule&#45;&gt;IssModule</title>
<path fill="none" stroke="#000000" d="M217,-198.1061C217,-198.1061 217,-216.991 217,-216.991"/>
<polygon fill="#000000" stroke="#000000" points="213.5001,-216.9909 217,-226.991 220.5001,-216.991 213.5001,-216.9909"/>
</g>
<!-- AppModule -->
<g id="node4" class="node">
<title>AppModule</title>
<polygon fill="#8dd3c7" stroke="#000000" points="201.6571,-339 198.6571,-343 177.6571,-343 174.6571,-339 118.3429,-339 118.3429,-303 201.6571,-303 201.6571,-339"/>
<text text-anchor="middle" x="160" y="-316.8" font-family="Times,serif" font-size="14.00" fill="#000000">AppModule</text>
</g>
<!-- CommonModule&#45;&gt;AppModule -->
<g id="edge1" class="edge">
<title>CommonModule&#45;&gt;AppModule</title>
<path fill="none" stroke="#000000" d="M161.3082,-198.1446C161.3082,-198.1446 161.3082,-292.925 161.3082,-292.925"/>
<polygon fill="#000000" stroke="#000000" points="157.8083,-292.925 161.3082,-302.925 164.8083,-292.925 157.8083,-292.925"/>
</g>
<!-- ExpoNotifierService  -->
<g id="node5" class="node">
<title>ExpoNotifierService </title>
<polygon fill="#fb8072" stroke="#000000" points="860.8448,-263 725.1552,-263 725.1552,-227 860.8448,-227 860.8448,-263"/>
<text text-anchor="middle" x="793" y="-240.8" font-family="Times,serif" font-size="14.00" fill="#000000">ExpoNotifierService </text>
</g>
<!-- CommonModule&#45;&gt;ExpoNotifierService  -->
<g id="edge4" class="edge">
<title>CommonModule&#45;&gt;ExpoNotifierService </title>
<path fill="none" stroke="#000000" stroke-dasharray="5,2" d="M254.8821,-177C402.7502,-177 793,-177 793,-177 793,-177 793,-216.7772 793,-216.7772"/>
<polygon fill="#000000" stroke="#000000" points="789.5001,-216.7772 793,-226.7772 796.5001,-216.7773 789.5001,-216.7772"/>
</g>
<!-- FirebaseNotifierService  -->
<g id="node6" class="node">
<title>FirebaseNotifierService </title>
<polygon fill="#fb8072" stroke="#000000" points="1031.7141,-263 878.2859,-263 878.2859,-227 1031.7141,-227 1031.7141,-263"/>
<text text-anchor="middle" x="955" y="-240.8" font-family="Times,serif" font-size="14.00" fill="#000000">FirebaseNotifierService </text>
</g>
<!-- CommonModule&#45;&gt;FirebaseNotifierService  -->
<g id="edge5" class="edge">
<title>CommonModule&#45;&gt;FirebaseNotifierService </title>
<path fill="none" stroke="#000000" stroke-dasharray="5,2" d="M254.8975,-170C429.7949,-170 955,-170 955,-170 955,-170 955,-216.8446 955,-216.8446"/>
<polygon fill="#000000" stroke="#000000" points="951.5001,-216.8446 955,-226.8446 958.5001,-216.8446 951.5001,-216.8446"/>
</g>
<!-- IssModule&#45;&gt;AppModule -->
<g id="edge2" class="edge">
<title>IssModule&#45;&gt;AppModule</title>
<path fill="none" stroke="#000000" d="M190.6392,-263.0109C190.6392,-263.0109 190.6392,-292.855 190.6392,-292.855"/>
<polygon fill="#000000" stroke="#000000" points="187.1393,-292.8549 190.6392,-302.855 194.1393,-292.855 187.1393,-292.8549"/>
</g>
<!-- IssService  -->
<g id="node9" class="node">
<title>IssService </title>
<polygon fill="#fb8072" stroke="#000000" points="498.5274,-339 421.4726,-339 421.4726,-303 498.5274,-303 498.5274,-339"/>
<text text-anchor="middle" x="460" y="-316.8" font-family="Times,serif" font-size="14.00" fill="#000000">IssService </text>
</g>
<!-- IssModule&#45;&gt;IssService  -->
<g id="edge9" class="edge">
<title>IssModule&#45;&gt;IssService </title>
<path fill="none" stroke="#000000" stroke-dasharray="5,2" d="M219.4021,-263.1097C219.4021,-272.897 219.4021,-283 219.4021,-283 219.4021,-283 449.2151,-283 449.2151,-283 449.2151,-283 449.2151,-292.8903 449.2151,-292.8903"/>
<polygon fill="#000000" stroke="#000000" points="445.7152,-292.8903 449.2151,-302.8903 452.7152,-292.8904 445.7152,-292.8903"/>
</g>
<!-- UserModule -->
<g id="node3" class="node">
<title>UserModule</title>
<polygon fill="#8dd3c7" stroke="#000000" points="124.9762,-198 121.9762,-202 100.9762,-202 97.9762,-198 39.0238,-198 39.0238,-162 124.9762,-162 124.9762,-198"/>
<text text-anchor="middle" x="82" y="-175.8" font-family="Times,serif" font-size="14.00" fill="#000000">UserModule</text>
</g>
<!-- UserModule&#45;&gt;AppModule -->
<g id="edge3" class="edge">
<title>UserModule&#45;&gt;AppModule</title>
<path fill="none" stroke="#000000" d="M125.1374,-180C129.636,-180 132.6042,-180 132.6042,-180 132.6042,-180 132.6042,-292.8554 132.6042,-292.8554"/>
<polygon fill="#000000" stroke="#000000" points="129.1043,-292.8553 132.6042,-302.8554 136.1043,-292.8554 129.1043,-292.8553"/>
</g>
<!-- ExpoNotifierService -->
<g id="node7" class="node">
<title>ExpoNotifierService</title>
<ellipse fill="#fdb462" stroke="#000000" cx="386" cy="-245" rx="90.8878" ry="18"/>
<text text-anchor="middle" x="386" y="-240.8" font-family="Times,serif" font-size="14.00" fill="#000000">ExpoNotifierService</text>
</g>
<!-- ExpoNotifierService&#45;&gt;CommonModule -->
<g id="edge6" class="edge">
<title>ExpoNotifierService&#45;&gt;CommonModule</title>
<path fill="none" stroke="#000000" d="M386,-226.7181C386,-211.0522 386,-191 386,-191 386,-191 264.8529,-191 264.8529,-191"/>
<polygon fill="#000000" stroke="#000000" points="264.8529,-187.5001 254.8529,-191 264.8528,-194.5001 264.8529,-187.5001"/>
</g>
<!-- FirebaseNotifierService -->
<g id="node8" class="node">
<title>FirebaseNotifierService</title>
<ellipse fill="#fdb462" stroke="#000000" cx="598" cy="-245" rx="103.0405" ry="18"/>
<text text-anchor="middle" x="598" y="-240.8" font-family="Times,serif" font-size="14.00" fill="#000000">FirebaseNotifierService</text>
</g>
<!-- FirebaseNotifierService&#45;&gt;CommonModule -->
<g id="edge7" class="edge">
<title>FirebaseNotifierService&#45;&gt;CommonModule</title>
<path fill="none" stroke="#000000" d="M598,-226.698C598,-208.7301 598,-184 598,-184 598,-184 264.8994,-184 264.8994,-184"/>
<polygon fill="#000000" stroke="#000000" points="264.8994,-180.5001 254.8994,-184 264.8993,-187.5001 264.8994,-180.5001"/>
</g>
<!-- IssService -->
<g id="node10" class="node">
<title>IssService</title>
<ellipse fill="#fdb462" stroke="#000000" cx="346" cy="-321" rx="50.9367" ry="18"/>
<text text-anchor="middle" x="346" y="-316.8" font-family="Times,serif" font-size="14.00" fill="#000000">IssService</text>
</g>
<!-- IssService&#45;&gt;IssModule -->
<g id="edge10" class="edge">
<title>IssService&#45;&gt;IssModule</title>
<path fill="none" stroke="#000000" d="M294.9993,-321C266.6246,-321 236.9759,-321 236.9759,-321 236.9759,-321 236.9759,-273.0109 236.9759,-273.0109"/>
<polygon fill="#000000" stroke="#000000" points="240.476,-273.0109 236.9759,-263.0109 233.476,-273.011 240.476,-273.0109"/>
</g>
<!-- UserService -->
<g id="node11" class="node">
<title>UserService</title>
<ellipse fill="#fdb462" stroke="#000000" cx="82" cy="-104" rx="58.4415" ry="18"/>
<text text-anchor="middle" x="82" y="-99.8" font-family="Times,serif" font-size="14.00" fill="#000000">UserService</text>
</g>
<!-- UserService&#45;&gt;UserModule -->
<g id="edge11" class="edge">
<title>UserService&#45;&gt;UserModule</title>
<path fill="none" stroke="#000000" d="M82,-122.0109C82,-122.0109 82,-151.855 82,-151.855"/>
<polygon fill="#000000" stroke="#000000" points="78.5001,-151.8549 82,-161.855 85.5001,-151.855 78.5001,-151.8549"/>
</g>
</g>
</svg>
